<svg width="24" height="24" viewBox="0 0 24 24" fill="none" xmlns="http://www.w3.org/2000/svg">
<path d="M22 10V6C22 5.46957 21.7893 4.96086 21.4142 4.58579C21.0391 4.21071 20.5304 4 20 4H4C3.46957 4 2.96086 4.21071 2.58579 4.58579C2.21071 4.96086 2 5.46957 2 6V10" stroke="#666666" stroke-width="2"/>
<path d="M7 20H17" stroke="#666666" stroke-width="2"/>
<path d="M12 16V20" stroke="#666666" stroke-width="2"/>
<path d="M2 10H22V16C22 16.5304 21.7893 17.0391 21.4142 17.4142C21.0391 17.7893 20.5304 18 20 18H4C3.46957 18 2.96086 17.7893 2.58579 17.4142C2.21071 17.0391 2 16.5304 2 16V10Z" stroke="#666666" stroke-width="2"/>
</svg>
